<svg data-logo="logo" xmlns="http://www.w3.org/2000/svg" viewBox="0 0 287.3800048828125 42">
        <g id="logogram" transform="
    translate(0, 0.5)
    rotate(0 20.5 20.5)
    
  "><path d="M20.207 28.27C15.7888 28.27 12.207 24.6883 12.207 20.27C12.207 15.8517 15.7888 12.27 20.207 12.27C24.6253 12.27 28.207 15.8517 28.207 20.27C28.207 24.6883 24.6253 28.27 20.207 28.27Z" fill="#1DC71A"/><path d="M4.70875 23.0028C2.39042 23.4116 0.801324 25.6511 1.69126 27.8305C2.93371 30.8732 4.91589 33.5842 7.48563 35.7026C11.1602 38.7315 15.7949 40.35 20.5562 40.267C25.3175 40.1839 29.893 38.4046 33.4597 35.2491C35.9538 33.0424 37.8402 30.2639 38.9758 27.1797C39.7891 24.9705 38.1227 22.7879 35.7915 22.4603C33.4605 22.1327 31.3674 23.8295 30.2159 25.8828C29.5918 26.9957 28.7815 28.0055 27.8109 28.8643C25.7645 30.6748 23.1393 31.6956 20.4075 31.7433C17.6757 31.7909 15.0165 30.8624 12.9082 29.1244C11.9081 28.3 11.0631 27.3192 10.4005 26.2287C9.17809 24.2168 7.02709 22.594 4.70875 23.0028Z" fill="#51A3EE"/><path d="M40.0524 22.7693C40.1545 21.9505 40.2071 21.1164 40.2071 20.27C40.2071 9.2243 31.2528 0.269989 20.207 0.269989C9.16134 0.269989 0.207031 9.2243 0.207031 20.27C0.207031 21.3563 0.293631 22.4223 0.460311 23.4616C1.37895 22.204 2.81271 21.3063 4.36138 21.0332C6.03697 20.7377 7.55981 21.1441 8.8474 21.9037C8.77133 21.3701 8.73197 20.8247 8.73197 20.27C8.73197 13.9325 13.8696 8.79493 20.207 8.79493C26.5445 8.79493 31.6821 13.9325 31.6821 20.27C31.6821 20.6879 31.6597 21.1005 31.6162 21.5068C32.8766 20.7024 34.3846 20.2428 36.0698 20.4797C37.6266 20.6985 39.0904 21.5452 40.0524 22.7693Z" fill="#0E4F8B"/></g>
        <g id="logotype" transform="translate(47, 6.824999999999999)"><path fill="#111111" d="M17.41 0.70Q20.98 0.70 23.57 2.87L23.57 2.87L24.41 1.01L25.57 1.01L25.92 8.75L24.38 8.75Q22.63 2.76 17.62 2.76L17.62 2.76Q15.80 2.76 14.79 3.66Q13.77 4.55 13.77 6.09L13.77 6.09Q13.77 7.14 14.44 7.96Q15.10 8.78 16.10 9.38Q17.09 9.97 18.84 10.85L18.84 10.85Q21.37 12.11 22.96 13.18Q24.55 14.24 25.71 16.01Q26.86 17.78 26.86 20.37L26.86 20.37Q26.86 22.61 25.60 24.41Q24.34 26.21 22.17 27.27Q20 28.32 17.34 28.32L17.34 28.32Q15.70 28.32 14.16 27.89Q12.62 27.48 10.87 26.57L10.87 26.57L9.64 28L8.55 28L7.86 19.04L9.32 18.80Q10.45 22.75 12.32 24.52Q14.19 26.29 17.27 26.29L17.27 26.29Q19.51 26.29 20.82 25.22Q22.14 24.15 22.14 22.29L22.14 22.29Q22.14 21.24 21.45 20.44Q20.77 19.63 19.72 19.04Q18.67 18.45 16.82 17.53L16.82 17.53Q14.19 16.31 12.51 15.22Q10.83 14.14 9.64 12.37Q8.45 10.60 8.45 8.08L8.45 8.08Q8.45 5.98 9.62 4.30Q10.80 2.62 12.84 1.66Q14.89 0.70 17.41 0.70L17.41 0.70ZM52.31 24.57Q52.66 25.41 53.04 25.83Q53.43 26.25 54.09 26.43Q54.76 26.60 56.09 26.70L56.09 26.70L56.09 28L41.67 28L41.67 26.70Q43.63 26.63 44.36 26.37Q45.10 26.11 45.10 25.41L45.10 25.41Q45.10 24.85 44.78 24.01L44.78 24.01L43.38 20.23L35.51 20.23L34.49 22.89Q34.11 23.94 34.11 24.54L34.11 24.54Q34.11 25.41 35.00 25.90Q35.89 26.39 38.06 26.70L38.06 26.70L38.06 28L27.21 28L27.21 26.70Q28.93 26.43 29.73 26.07Q30.54 25.73 31.01 25.04Q31.48 24.36 32.08 22.82L32.08 22.82L38.69 5.95L37.08 2.34L42.30 0.35L52.31 24.57ZM36.28 18.23L42.65 18.23L39.60 9.94L39.46 9.94L36.28 18.23ZM56.72 1.05L68.37 1.05Q71.49 1.05 73.81 2.03Q76.14 3.01 77.40 4.81Q78.66 6.61 78.66 9.03L78.66 9.03Q78.66 12.74 75.83 14.77Q72.99 16.80 67.81 16.80L67.81 16.80L65.71 16.80L65.71 25.93L70.09 26.70L70.09 28L56.72 28L56.72 26.70L59.69 25.93L59.69 3.08L56.72 2.34L56.72 1.05ZM65.71 14.91L65.96 14.91Q69.14 14.91 70.68 13.47L70.68 13.47Q71.49 12.70 71.87 11.57Q72.26 10.43 72.26 8.71L72.26 8.71Q72.26 5.53 70.93 4.20L70.93 4.20Q70.26 3.53 69.23 3.24Q68.20 2.94 66.59 2.94L66.59 2.94L65.71 2.94L65.71 14.91ZM90.95 0.70Q94.52 0.70 97.11 2.87L97.11 2.87L97.95 1.01L99.10 1.01L99.45 8.75L97.91 8.75Q96.16 2.76 91.16 2.76L91.16 2.76Q89.34 2.76 88.32 3.66Q87.31 4.55 87.31 6.09L87.31 6.09Q87.31 7.14 87.97 7.96Q88.64 8.78 89.63 9.38Q90.63 9.97 92.38 10.85L92.38 10.85Q94.90 12.11 96.49 13.18Q98.09 14.24 99.24 16.01Q100.40 17.78 100.40 20.37L100.40 20.37Q100.40 22.61 99.14 24.41Q97.88 26.21 95.71 27.27Q93.54 28.32 90.88 28.32L90.88 28.32Q89.23 28.32 87.69 27.89Q86.15 27.48 84.40 26.57L84.40 26.57L83.18 28L82.09 28L81.39 19.04L82.86 18.80Q83.98 22.75 85.85 24.52Q87.73 26.29 90.81 26.29L90.81 26.29Q93.05 26.29 94.36 25.22Q95.67 24.15 95.67 22.29L95.67 22.29Q95.67 21.24 94.99 20.44Q94.31 19.63 93.26 19.04Q92.21 18.45 90.35 17.53L90.35 17.53Q87.73 16.31 86.05 15.22Q84.37 14.14 83.18 12.37Q81.99 10.60 81.99 8.08L81.99 8.08Q81.99 5.98 83.16 4.30Q84.33 2.62 86.38 1.66Q88.43 0.70 90.95 0.70L90.95 0.70ZM109.29 26.70L112.26 25.97L112.26 16.27L105.58 4.48Q105.09 3.57 104.63 3.17Q104.18 2.76 103.53 2.61Q102.88 2.45 101.55 2.34L101.55 2.34L101.55 1.05L116.01 1.05L116.01 2.34Q114.01 2.48 113.24 2.90Q112.47 3.32 112.47 4.02L112.47 4.02Q112.47 4.44 112.79 5.04L112.79 5.04L117.27 13.82L117.41 13.82L121.43 6.16Q122.10 4.86 122.10 4.06L122.10 4.06Q122.10 3.22 121.20 2.80Q120.31 2.38 118.21 2.34L118.21 2.34L118.21 1.05L128.78 1.05L128.78 2.34Q127.24 2.48 126.52 2.75Q125.81 3.01 125.25 3.71Q124.69 4.41 123.71 6.23L123.71 6.23L118.28 16.31L118.28 25.97L121.22 26.70L121.22 28L109.29 28L109.29 26.70ZM139.10 0.70Q142.67 0.70 145.26 2.87L145.26 2.87L146.10 1.01L147.26 1.01L147.61 8.75L146.07 8.75Q144.32 2.76 139.31 2.76L139.31 2.76Q137.50 2.76 136.48 3.66Q135.47 4.55 135.47 6.09L135.47 6.09Q135.47 7.14 136.13 7.96Q136.79 8.78 137.79 9.38Q138.79 9.97 140.54 10.85L140.54 10.85Q143.06 12.11 144.65 13.18Q146.25 14.24 147.40 16.01Q148.56 17.78 148.56 20.37L148.56 20.37Q148.56 22.61 147.29 24.41Q146.03 26.21 143.87 27.27Q141.69 28.32 139.03 28.32L139.03 28.32Q137.39 28.32 135.85 27.89Q134.31 27.48 132.56 26.57L132.56 26.57L131.33 28L130.25 28L129.55 19.04L131.02 18.80Q132.14 22.75 134.01 24.52Q135.88 26.29 138.97 26.29L138.97 26.29Q141.20 26.29 142.52 25.22Q143.83 24.15 143.83 22.29L143.83 22.29Q143.83 21.24 143.15 20.44Q142.47 19.63 141.41 19.04Q140.37 18.45 138.51 17.53L138.51 17.53Q135.88 16.31 134.20 15.22Q132.53 14.14 131.33 12.37Q130.14 10.60 130.14 8.08L130.14 8.08Q130.14 5.98 131.32 4.30Q132.49 2.62 134.54 1.66Q136.58 0.70 139.10 0.70L139.10 0.70ZM156.81 26.70L161.02 25.93L161.02 2.97L155.31 2.97Q153.46 5.35 152.09 9.10L152.09 9.10L150.72 9.10L152.02 1.05L175.89 1.05L177.19 9.10L175.82 9.10Q175.16 7.28 174.44 5.77Q173.72 4.27 172.71 2.97L172.71 2.97L167 2.97L167 25.93L171.17 26.70L171.17 28L156.81 28L156.81 26.70ZM199.94 19.81L201.75 19.81L200.28 28L179.04 28L179.04 26.70L182.01 26.04L182.01 3.01L179.04 2.34L179.04 1.05L200.46 1.05L201.13 8.75L199.66 8.75Q198.50 5.39 196.96 3.04L196.96 3.04L188.03 3.04L188.03 12.81L192.44 12.81Q193.46 11.09 193.95 8.85L193.95 8.85L195.42 8.85L195.42 18.66L193.95 18.66Q193.50 16.55 192.44 14.70L192.44 14.70L188.03 14.70L188.03 26.00L196.75 26.00Q197.76 24.64 198.43 23.26Q199.09 21.88 199.94 19.81L199.94 19.81ZM207.63 3.01L204.56 2.34L204.56 1.05L215.16 1.05L222.44 19.11L222.65 19.11L230.25 1.05L239.24 1.05L239.24 2.34L236.30 3.04L236.30 25.97L239.24 26.70L239.24 28L227.31 28L227.31 26.70L230.28 25.97L230.28 7.21L230.14 7.21L221.36 28.35L219.68 28.35L210.19 6.26L210.05 6.26L210.05 26.04L213.13 26.70L213.13 28L204.52 28L204.52 26.70L207.63 26.04L207.63 3.01Z"/></g>
        
      </svg>
    